<svg width="128" height="128" viewBox="0 0 128 128" fill="none" xmlns="http://www.w3.org/2000/svg">
  <defs>
    <linearGradient id="pm-bg" x1="64" y1="10" x2="64" y2="118" gradientUnits="userSpaceOnUse">
      <stop stop-color="#FFF7F7"/>
      <stop offset="1" stop-color="#F3E1E1"/>
    </linearGradient>
    <linearGradient id="pm-stroke" x1="64" y1="24" x2="64" y2="104" gradientUnits="userSpaceOnUse">
      <stop stop-color="#B30000"/>
      <stop offset="1" stop-color="#7F0000"/>
    </linearGradient>
  </defs>
  <rect x="10" y="10" width="108" height="108" rx="26" fill="url(#pm-bg)"/>
  <rect x="11.5" y="11.5" width="105" height="105" rx="24.5" stroke="#E5B8B8" stroke-width="3"/>
  <path d="M32 92V36H58C74 36 84 44.6 84 59C84 73.4 73.8 82 57.8 82H46V92" stroke="url(#pm-stroke)" stroke-width="8" stroke-linecap="round" stroke-linejoin="round"/>
  <path d="M46 50H57.5C64.4 50 68 53 68 59C68 65 64.3 68 57.2 68H46" stroke="url(#pm-stroke)" stroke-width="8" stroke-linecap="round" stroke-linejoin="round"/>
  <path d="M89 34L97 42" stroke="#D88F8F" stroke-width="6" stroke-linecap="round"/>
  <path d="M97 34L89 42" stroke="#D88F8F" stroke-width="6" stroke-linecap="round"/>
</svg>
