<svg xmlns="http://www.w3.org/2000/svg" width="1600" height="1000" viewBox="0 0 1600 1000" role="img" aria-labelledby="title desc">
  <title id="title">Preset Mutator cover</title>
  <desc id="desc">A dark red and cream abstract product cover for the Preset Mutator browser tool.</desc>
  <defs>
    <radialGradient id="core" cx="50%" cy="45%" r="64%">
      <stop offset="0%" stop-color="#fff1df"/>
      <stop offset="38%" stop-color="#ba3327"/>
      <stop offset="100%" stop-color="#150708"/>
    </radialGradient>
    <linearGradient id="panel" x1="0" x2="1" y1="0" y2="1">
      <stop offset="0%" stop-color="#fff4ea"/>
      <stop offset="48%" stop-color="#9d211d"/>
      <stop offset="100%" stop-color="#1d090b"/>
    </linearGradient>
    <filter id="shadow" x="-20%" y="-20%" width="140%" height="140%">
      <feDropShadow dx="0" dy="28" stdDeviation="34" flood-color="#150406" flood-opacity="0.38"/>
    </filter>
    <pattern id="grid" width="64" height="64" patternUnits="userSpaceOnUse">
      <path d="M0 32H64M32 0V64" stroke="#fff2e8" stroke-opacity="0.07" stroke-width="1"/>
      <circle cx="32" cy="32" r="2.4" fill="#fff2e8" fill-opacity="0.1"/>
    </pattern>
  </defs>
  <rect width="1600" height="1000" fill="#170708"/>
  <rect width="1600" height="1000" fill="url(#core)"/>
  <rect width="1600" height="1000" fill="url(#grid)"/>
  <path d="M0 735C170 646 310 672 474 728C650 788 806 820 996 734C1178 652 1346 610 1600 694V1000H0Z" fill="#130607" opacity="0.68"/>
  <path d="M0 162C200 230 380 214 562 142C790 52 998 84 1210 166C1358 224 1476 230 1600 188V0H0Z" fill="#fff0df" opacity="0.13"/>
  <g filter="url(#shadow)">
    <rect x="230" y="145" width="1140" height="710" rx="54" fill="#fff3e9" opacity="0.93"/>
    <rect x="260" y="175" width="1080" height="650" rx="38" fill="url(#panel)"/>
    <g opacity="0.38" fill="none" stroke="#fff4ea" stroke-width="2">
      <path d="M358 630C470 520 596 512 722 608C858 711 1014 715 1194 574"/>
      <path d="M384 404C538 494 696 488 850 384C1018 272 1166 302 1264 390"/>
      <path d="M442 704C574 652 704 670 824 726C970 794 1114 762 1252 660"/>
    </g>
    <g transform="translate(800 450)">
      <circle r="170" fill="#1a090b" opacity="0.72"/>
      <circle r="128" fill="none" stroke="#fff4ea" stroke-opacity="0.5" stroke-width="7"/>
      <circle r="64" fill="none" stroke="#fff4ea" stroke-opacity="0.36" stroke-width="4"/>
      <path d="M-106 -8H106M-8 -106V106" stroke="#fff4ea" stroke-opacity="0.76" stroke-width="10" stroke-linecap="round"/>
      <path d="M-78 74C-20 28 22 22 78 68M-80 -78C-24 -30 18 -24 80 -70" fill="none" stroke="#d52f28" stroke-width="12" stroke-linecap="round"/>
      <circle cx="-108" cy="-8" r="18" fill="#fff4ea"/>
      <circle cx="108" cy="-8" r="18" fill="#fff4ea"/>
      <circle cx="-8" cy="-106" r="18" fill="#fff4ea"/>
      <circle cx="-8" cy="106" r="18" fill="#fff4ea"/>
    </g>
  </g>
  <g font-family="'Space Grotesk', 'Arial', sans-serif" text-anchor="middle">
    <text x="800" y="306" fill="#fff8f1" font-size="36" font-weight="700" letter-spacing="8">KREATIV SOUND</text>
    <text x="800" y="612" fill="#fff8f1" font-size="104" font-weight="850" letter-spacing="-4">PRESET MUTATOR</text>
    <text x="800" y="694" fill="#ffe1d2" font-size="30" font-weight="650" letter-spacing="3">VITAL PRESET GENERATOR</text>
  </g>
</svg>
