<svg width="96" height="96" viewBox="0 0 96 96" fill="none" xmlns="http://www.w3.org/2000/svg">
  <defs>
    <linearGradient id="aa-bg" x1="48" y1="12" x2="48" y2="84" gradientUnits="userSpaceOnUse">
      <stop stop-color="#FFF7F7"/>
      <stop offset="1" stop-color="#F5E4E4"/>
    </linearGradient>
    <linearGradient id="aa-stroke" x1="48" y1="18" x2="48" y2="78" gradientUnits="userSpaceOnUse">
      <stop stop-color="#B30000"/>
      <stop offset="1" stop-color="#7F0000"/>
    </linearGradient>
  </defs>
  <rect x="10" y="10" width="76" height="76" rx="22" fill="url(#aa-bg)"/>
  <rect x="10.75" y="10.75" width="74.5" height="74.5" rx="21.25" stroke="#E7B7B7" stroke-width="1.5"/>
  <path d="M35 29H46.5" stroke="url(#aa-stroke)" stroke-width="4.5" stroke-linecap="round"/>
  <path d="M38 29V40.5L28.5 56.5C26.8 59.5 29 63 32.5 63H49C52.7 63 54.8 59.1 52.8 56L43 40.5V29" stroke="url(#aa-stroke)" stroke-width="4.5" stroke-linecap="round" stroke-linejoin="round"/>
  <path d="M53 35H63.5" stroke="url(#aa-stroke)" stroke-width="4.5" stroke-linecap="round"/>
  <path d="M56 35V45L48.8 57.5C47.1 60.4 49.3 64 52.7 64H64.8C68.3 64 70.5 60.2 68.6 57.2L60 44.5V35" stroke="url(#aa-stroke)" stroke-width="4.5" stroke-linecap="round" stroke-linejoin="round"/>
</svg>
